<svg id="Layer_1" data-name="Layer 1" xmlns="http://www.w3.org/2000/svg" viewBox="0 0 173.6 155"><defs><style>.cls-1{fill:#5cc279;}.cls-2{fill:#777;}</style></defs><title>nafue</title><path id="Fill-1024" class="cls-1" d="M110.16,119.34L96,133.47v-56a6.16,6.16,0,0,0-12.32,0v56L69.6,119.34a6.16,6.16,0,0,0-8.71,8.71l24.64,24.64a6.33,6.33,0,0,0,.94.77l0.46,0.25,0.6,0.32,0.62,0.19,0.53,0.16a6,6,0,0,0,2.41,0l0.53-.16,0.62-.19,0.6-.32,0.46-.25a6.33,6.33,0,0,0,.94-0.77l24.64-24.64a6.16,6.16,0,0,0-8.71-8.71"/><path id="Fill-1025" class="cls-2" d="M147.89,49.74a56.76,56.76,0,0,0-14.43,0l-0.47,0a3.08,3.08,0,0,1-.46-6.12,58.83,58.83,0,0,1,12.58-.38C143,19.4,123.24.5,99.38,0.5A48.79,48.79,0,0,0,61.54,19.38,27.66,27.66,0,0,1,71.4,40.54a3.08,3.08,0,0,1-6.16,0,21.48,21.48,0,0,0-12-19.31l-0.64-.31a21.68,21.68,0,0,0-2.57-1l-0.33-.09a21,21,0,0,0-2.43-.54l-0.72-.11A21.42,21.42,0,0,0,22.12,40.54l0,0.75,0,0.65,0,0.49c0,0.4,0,.8,0,1.19v1.94l-1.75.83C8.89,51.9.56,65.18,0.56,78A33.44,33.44,0,0,0,34,111.38h43.6V77.5a12.32,12.32,0,0,1,24.64,0v33.88h7.25l0.53,0,0.61,0,0.83,0,0.54,0h30.19A30.92,30.92,0,0,0,173,80.49c0-14.82-10.81-28-25.15-30.76"/></svg>