<svg id="Layer_1" data-name="Layer 1" xmlns="http://www.w3.org/2000/svg" viewBox="0 0 153.93 155.78"><defs><style>.cls-1{fill:#5cc279;stroke:#5cc279;stroke-miterlimit:10;stroke-width:4px;}.cls-2{fill:#777;}</style></defs><title>nafue</title><g id="Page-1"><g id="g296"><path id="Fill-1326" class="cls-1" d="M143.73,105.49c-10-14-26.76-19.32-37.33-11.78a19.3,19.3,0,0,0-7.25,10.68L42.37,86.48a2.32,2.32,0,0,0-3.19,2.28,4.57,4.57,0,0,0,3,4.23l7.88,2.48-0.4,15.16a4.57,4.57,0,0,0,3,4.23,2.32,2.32,0,0,0,3.19-2.28l0.4-15.16L61,98.94l-0.28,10.56a4.57,4.57,0,0,0,3,4.23A2.32,2.32,0,0,0,67,111.45l0.28-10.56L72,102.4l-0.4,15.16a4.57,4.57,0,0,0,3,4.23,2.32,2.32,0,0,0,3.19-2.28l0.4-15.16,19.93,6.29a36.82,36.82,0,0,0,7.19,22.2c10,14,26.76,19.32,37.33,11.78s11-25.1,1-39.13h0Zm-33.85,24.14c-7.65-10.73-7.3-24.16.79-29.93s20.9-1.73,28.55,9,7.3,24.16-.79,29.93-20.9,1.73-28.55-9h0Z"/></g></g><path class="cls-2" d="M109,57.8V41.95C109,19.37,88.41,1,63.5,1S18,19.37,18,41.95V57.8A20.12,20.12,0,0,0,1,77.9v55.19c0,11.26,10,21.69,21.29,21.69h83.43c11.26,0,21.28-10.44,21.28-21.69V77.9C127,67.82,119,59.45,109,57.8ZM77.57,135.27l-27.32-.06c0.65-2.51,1.28-5,1.93-7.51,2-7.83,4.06-15.66,6.16-23.48a1.32,1.32,0,0,0-.86-1.86A14.72,14.72,0,0,1,64,74.58a14.51,14.51,0,0,1,14,11.31,14.72,14.72,0,0,1-7.59,16.53l-1.17.59ZM104,57.78H23V41.95c0-19.47,18.7-35.3,40.5-35.3S104,22.48,104,41.95V57.78Z"/><path class="cls-1" d="M141.68,105c-10-14-26.76-19.32-37.33-11.78a19.3,19.3,0,0,0-7.25,10.68l-21-6.62a14.53,14.53,0,0,1-5.64,5.12l-0.51.26L69.9,105.3,74,121.39A2.3,2.3,0,0,0,75.79,119l0.4-15.16,19.93,6.29a36.82,36.82,0,0,0,7.19,22.2c10,14,26.76,19.32,37.33,11.78S151.69,119,141.68,105Zm-5.31,33.14c-8.09,5.77-20.9,1.73-28.55-9s-7.3-24.16.79-29.93,20.9-1.73,28.55,9S144.46,132.38,136.38,138.15Z"/></svg>