<svg id="Layer_1" data-name="Layer 1" xmlns="http://www.w3.org/2000/svg" viewBox="0 0 155.85 156.05"><defs><style>.cls-1{fill:#777;}.cls-2{fill:#5cc279;stroke:#5cc279;stroke-miterlimit:10;}</style></defs><title>nafue</title><path id="Fill-1" class="cls-1" d="M153.69,43.07l0.92-.9-0.06-2.52L107.81,1V24.75h0c-1,0-2,0-3.08.06C84.16,25.55,66.22,36.66,57,53.44H28.28L2.14,92.59,1,92.65v2l-0.28.66L1,95.76v50.45A8.83,8.83,0,0,0,9.84,155H143.27a8.83,8.83,0,0,0,8.82-8.81V95.72l0.29-.45-0.33-.77-0.1-2h-1.1L131,62.63l22.73-19.57h0Zm-9,49.44h-42v18.23H50.51V92.51h-42l22.6-33.86H54.52c-0.07.17-.13,0.34-0.2,0.52-0.21.51-.4,1-0.59,1.54-0.43,1.16-.82,2.32-1.15,3.47-3,10.36-1.9,18-1.85,18.29l1,6.93,3.75-5.91c16.62-26.15,44.42-25.24,52.3-24.4V82.56L127,66.05l17.66,26.46h0Z"/><path class="cls-2" d="M154.47,39.65L106.94,1V24.95h1c-1,0-2,0-3.09,0-20.69.74-38.74,11.76-48,28.65l-2.52,4.95a1.92,1.92,0,0,0-.2.55c-0.21.51-.41,1-0.6,1.56-0.43,1.16-.83,2.33-1.16,3.48-3,10.36-1.91,18-1.86,18.3l1,6.93,3.26-5.91c16.71-26.15,45.1-25.24,52.1-24.4V82.56l19.8-16.35,4.38-3.42L154,43.15l0.83-.92Z"/></svg>