<?xml version="1.0" standalone="no"?>
<!DOCTYPE svg PUBLIC "-//W3C//DTD SVG 20010904//EN"
 "http://www.w3.org/TR/2001/REC-SVG-20010904/DTD/svg10.dtd">
<svg version="1.0" xmlns="http://www.w3.org/2000/svg"
 width="632.000000pt" height="632.000000pt" viewBox="0 0 632.000000 632.000000"
 preserveAspectRatio="xMidYMid meet">
<metadata>
Created by potrace 1.11, written by Peter Selinger 2001-2013
</metadata>
<g transform="translate(0.000000,632.000000) scale(0.100000,-0.100000)"
fill="#000000" stroke="none">
<path d="M3878 6275 c-2 -1 -43 -5 -93 -8 -103 -6 -274 -45 -390 -90 -282
-107 -543 -319 -709 -577 -100 -153 -189 -378 -212 -530 -2 -14 -8 -50 -13
-80 -10 -57 -8 -362 3 -415 4 -16 11 -55 17 -85 17 -84 66 -226 111 -320 33
-71 137 -242 157 -260 24 -21 111 -131 124 -156 30 -59 34 -52 -194 -372 -79
-112 -151 -213 -159 -225 -38 -55 -360 -513 -367 -522 -5 -5 -55 -77 -113
-160 -57 -82 -118 -170 -135 -195 -17 -25 -97 -137 -176 -250 -79 -113 -161
-230 -182 -260 -21 -30 -63 -91 -95 -135 -31 -44 -72 -103 -92 -131 -19 -29
-86 -125 -149 -215 -191 -274 -195 -279 -185 -288 8 -7 2488 -939 2525 -948 9
-3 16 1 16 9 0 22 13 153 17 173 2 11 7 56 11 99 4 43 8 86 10 95 1 9 6 57 11
106 4 50 8 92 9 95 1 3 5 39 9 80 8 79 14 133 21 190 2 19 7 64 10 100 4 36 8
76 10 90 2 14 6 57 10 95 4 39 8 81 10 95 1 14 6 59 10 100 4 41 9 84 11 95 2
11 6 49 9 85 4 36 8 79 9 95 2 17 7 62 11 100 3 39 8 82 11 96 2 14 6 52 9 85
3 32 7 79 10 104 3 25 8 68 10 95 3 28 7 66 10 85 2 19 7 59 10 88 3 28 7 76
10 105 3 28 8 68 10 87 3 19 7 64 10 100 3 36 7 76 9 90 3 14 8 57 11 95 3 39
8 81 10 95 2 14 6 52 10 85 3 33 8 78 10 100 3 22 7 60 9 85 13 138 19 191 25
194 3 2 35 7 71 10 570 58 1029 395 1240 911 35 85 67 187 76 244 3 14 7 33 9
41 18 63 26 356 13 462 -59 462 -332 866 -732 1086 -160 88 -366 153 -527 167
-87 8 -188 13 -191 10z"/>
</g>
</svg>
